<svg width="2000" height="2000" viewBox="0 0 2000 2000" fill="none" xmlns="http://www.w3.org/2000/svg">
<rect width="2000" height="2000" fill="#7CE8F4"/>
<path d="M1718.95 841C1718.95 825.887 1712.95 811.391 1702.28 800.695C1691.6 789.999 1677.11 783.977 1662 783.95V783.95C1677.1 783.95 1691.59 777.95 1702.27 767.27C1712.95 756.59 1718.95 742.104 1718.95 727V727C1718.98 742.113 1725 756.599 1735.69 767.276C1746.39 777.953 1760.89 783.95 1776 783.95V783.95C1760.88 783.977 1746.38 789.996 1735.69 800.689C1725 811.382 1718.98 825.878 1718.95 841V841Z" stroke="#2E0562" stroke-width="8" stroke-linejoin="round"/>
<path d="M1604.7 570C1604.7 554.883 1598.62 540.384 1587.8 529.695C1576.98 519.005 1562.3 513 1547 513V513C1562.3 513 1576.98 506.995 1587.8 496.305C1598.62 485.616 1604.7 471.117 1604.7 456V456C1604.7 471.049 1610.72 485.487 1621.46 496.165C1632.19 506.844 1646.77 512.895 1662 513C1646.7 513 1632.02 519.005 1621.2 529.695C1610.38 540.384 1604.3 554.883 1604.3 570H1604.7Z" stroke="#2E0562" stroke-width="8" stroke-linejoin="round"/>
<path d="M327.156 1420.06C246.374 1368.5 190.944 1278.97 192.68 1178.75" stroke="#2E0562" stroke-width="8" stroke-linejoin="round"/>
<path d="M326.5 1420.5C369.5 1449.33 488.5 1507 620.5 1507" stroke="#2E0562" stroke-width="8"/>
<path d="M192.679 1178.75C192.679 1026.19 309.322 901.006 458.451 887.129C458.258 882.792 457.777 878.552 457.777 874.215C457.777 767.821 544.15 681.569 650.575 681.569C702.245 681.569 749.095 702 783.605 735.055C842.987 577.295 994.912 464.637 1173.54 464.637C1403.74 464.637 1590.37 651.212 1590.37 881.25V881.443C1715.78 922.208 1806.4 1039.88 1806.4 1178.75C1806.4 1262.15 1773.77 1337.93 1720.57 1394" stroke="#2E0562" stroke-width="8" stroke-linejoin="round"/>
<path d="M682.05 1186.36C662.774 1193.73 641.237 1197.41 617.439 1197.41C577.221 1197.41 546.76 1186.72 526.056 1165.33C505.352 1143.71 495 1112.1 495 1070.51C495 1029.4 505.828 997.559 527.484 974.983C549.14 952.407 579.601 941.12 618.867 941.12C639.809 941.12 659.68 944.447 678.48 951.1V993.163C656.824 988.41 639.095 986.034 625.292 986.034C600.543 986.034 581.98 992.569 569.606 1005.64C557.469 1018.71 551.4 1038.67 551.4 1065.52V1073.72C551.4 1100.34 557.35 1120.18 569.249 1133.25C581.148 1146.08 599.353 1152.5 623.864 1152.5C637.667 1152.5 657.062 1149.77 682.05 1144.3V1186.36Z" fill="#775BE5"/>
<path d="M798.504 1189.22C788.509 1193.26 777.8 1195.28 766.377 1195.28C734.25 1195.28 718.187 1177.33 718.187 1141.45V929H770.304V1137.17C770.304 1143.83 771.375 1148.58 773.516 1151.43C775.896 1154.04 779.704 1155.35 784.939 1155.35C788.271 1155.35 792.792 1155 798.504 1154.28V1189.22Z" fill="#775BE5"/>
<path d="M911.815 1198.13C883.496 1198.13 861.364 1189.69 845.42 1172.82C829.475 1155.71 821.503 1131.94 821.503 1101.53C821.503 1071.35 829.475 1047.82 845.42 1030.95C861.364 1013.84 883.496 1005.28 911.815 1005.28C940.134 1005.28 962.266 1013.84 978.211 1030.95C994.155 1047.82 1002.13 1071.35 1002.13 1101.53C1002.13 1131.94 994.155 1155.71 978.211 1172.82C962.266 1189.69 940.134 1198.13 911.815 1198.13ZM911.815 1158.2C936.803 1158.2 949.297 1139.31 949.297 1101.53C949.297 1063.98 936.803 1045.21 911.815 1045.21C886.828 1045.21 874.334 1063.98 874.334 1101.53C874.334 1139.31 886.828 1158.2 911.815 1158.2Z" fill="#775BE5"/>
<path d="M1164.1 1192.78L1159.1 1173.53C1137.92 1189.93 1115.79 1198.13 1092.71 1198.13C1076.52 1198.13 1063.91 1193.37 1054.87 1183.87C1045.83 1174.13 1041.3 1160.82 1041.3 1143.95V1010.63H1093.42V1129.33C1093.42 1148.58 1101.75 1158.2 1118.41 1158.2C1130.78 1158.2 1142.92 1154.4 1154.82 1146.8V1010.63H1206.94V1192.78H1164.1Z" fill="#775BE5"/>
<path d="M1379.92 1192.78L1375.64 1176.74C1360.89 1190.05 1343.4 1196.7 1323.17 1196.7C1308.17 1196.7 1294.97 1193.02 1283.54 1185.65C1272.12 1178.05 1263.2 1167.11 1256.77 1152.86C1250.58 1138.6 1247.49 1121.84 1247.49 1102.6C1247.49 1073.13 1254.51 1049.6 1268.55 1032.02C1282.59 1014.19 1301.15 1005.28 1324.24 1005.28C1343.04 1005.28 1359.34 1010.63 1373.14 1021.32V929H1425.26V1192.78H1379.92ZM1340.3 1157.49C1351.72 1157.49 1362.67 1154.16 1373.14 1147.51V1053.4C1362.91 1047.46 1351.13 1044.49 1337.8 1044.49C1325.19 1044.49 1315.79 1049.25 1309.6 1058.75C1303.42 1068.02 1300.32 1082.16 1300.32 1101.17C1300.32 1120.18 1303.53 1134.32 1309.96 1143.59C1316.62 1152.86 1326.74 1157.49 1340.3 1157.49Z" fill="#775BE5"/>
<path d="M905.236 1516.88C885.96 1524.25 864.423 1527.93 840.626 1527.93C800.408 1527.93 769.947 1517.24 749.243 1495.85C728.539 1474.22 718.187 1442.62 718.187 1401.03C718.187 1359.92 729.015 1328.08 750.671 1305.5C772.327 1282.92 802.788 1271.64 842.054 1271.64C862.996 1271.64 882.867 1274.96 901.667 1281.62V1323.68C880.011 1318.93 862.282 1316.55 848.479 1316.55C823.729 1316.55 805.167 1323.09 792.793 1336.16C780.656 1349.23 774.587 1369.19 774.587 1396.04V1404.24C774.587 1430.85 780.537 1450.7 792.436 1463.77C804.334 1476.6 822.54 1483.02 847.051 1483.02C860.854 1483.02 880.249 1480.28 905.236 1474.82V1516.88Z" fill="#775BE5"/>
<path d="M1021.69 1519.73C1011.7 1523.77 1000.99 1525.79 989.564 1525.79C957.437 1525.79 941.374 1507.85 941.374 1471.97V1259.52H993.49V1467.69C993.49 1474.34 994.561 1479.1 996.703 1481.95C999.083 1484.56 1002.89 1485.87 1008.13 1485.87C1011.46 1485.87 1015.98 1485.51 1021.69 1484.8V1519.73Z" fill="#775BE5"/>
<path d="M1178.83 1523.3L1173.83 1504.05C1152.65 1520.44 1130.52 1528.64 1107.43 1528.64C1091.25 1528.64 1078.64 1523.89 1069.59 1514.39C1060.55 1504.64 1056.03 1491.33 1056.03 1474.46V1341.15H1108.15V1459.85C1108.15 1479.1 1116.48 1488.72 1133.13 1488.72C1145.51 1488.72 1157.65 1484.92 1169.54 1477.31V1341.15H1221.66V1523.3H1178.83Z" fill="#775BE5"/>
<path d="M1271.5 1523.3V1259.52H1323.61V1355.05C1330.51 1349.11 1338.61 1344.47 1347.89 1341.15C1357.17 1337.58 1366.33 1335.8 1375.37 1335.8C1398.46 1335.8 1416.66 1344.24 1429.99 1361.11C1443.55 1377.98 1450.34 1400.79 1450.34 1429.55C1450.34 1448.32 1447.24 1465.07 1441.05 1479.81C1434.87 1494.54 1425.94 1506.19 1414.28 1514.74C1402.62 1523.06 1389.18 1527.22 1373.95 1527.22C1363 1527.22 1352.77 1525.32 1343.25 1521.51C1333.73 1517.71 1325.76 1512.37 1319.33 1505.47L1314.69 1523.3H1271.5ZM1358.6 1375.01C1346.22 1375.01 1334.56 1378.22 1323.61 1384.63V1478.38C1334.08 1484.8 1345.75 1488.01 1358.6 1488.01C1371.92 1488.01 1381.68 1483.49 1387.87 1474.46C1394.29 1465.43 1397.51 1451.17 1397.51 1431.69C1397.51 1411.96 1394.41 1397.59 1388.22 1388.55C1382.04 1379.52 1372.16 1375.01 1358.6 1375.01Z" fill="#775BE5"/>
<path d="M1568.58 1473.04C1568.58 1468.28 1567.15 1464.6 1564.29 1461.99C1561.67 1459.37 1556.2 1456.52 1547.87 1453.43L1520.03 1442.38C1505.51 1436.68 1495.04 1429.67 1488.61 1421.35C1482.19 1413.03 1478.98 1402.46 1478.98 1389.62C1478.98 1373.46 1485.4 1360.51 1498.25 1350.77C1511.34 1340.79 1528.71 1335.8 1550.37 1335.8C1570.36 1335.8 1588.8 1339.72 1605.7 1347.56V1382.14C1587.61 1376.67 1570.72 1373.94 1555.01 1373.94C1545.25 1373.94 1538.11 1375.13 1533.59 1377.5C1529.07 1379.88 1526.81 1383.68 1526.81 1388.91C1526.81 1392.95 1528.12 1396.28 1530.74 1398.89C1533.59 1401.27 1539.42 1404.24 1548.23 1407.8L1575.36 1418.85C1590.11 1424.79 1600.58 1431.69 1606.77 1439.53C1613.2 1447.37 1616.41 1457.59 1616.41 1470.18C1616.41 1487.77 1609.63 1502.03 1596.06 1512.96C1582.73 1523.65 1565.12 1529 1543.23 1529C1518.72 1529 1497.06 1524.13 1478.26 1514.39V1479.81C1501.82 1487.18 1523.36 1490.86 1542.87 1490.86C1560.01 1490.86 1568.58 1484.92 1568.58 1473.04Z" fill="#775BE5"/>
<path d="M316.549 840.901C316.497 825.805 310.516 811.345 299.917 800.689C289.318 790.033 274.964 784.05 260 784.05V784.05C274.998 784.05 289.381 778.039 299.986 767.34C310.591 756.641 316.549 742.13 316.549 727C316.536 734.487 317.987 741.903 320.818 748.824C323.649 755.745 327.805 762.035 333.048 767.334C338.292 772.633 344.519 776.837 351.374 779.705C358.23 782.573 365.578 784.05 373 784.05V784.05C358.028 784.05 343.67 790.05 333.083 800.73C322.497 811.41 316.549 825.896 316.549 841V840.901Z" stroke="#DF2A5D" stroke-width="8" stroke-linejoin="round"/>
<path d="M793 394C793 378.883 787.1 364.385 776.598 353.695C766.096 343.005 751.852 337 737 337V337C744.354 337 751.636 335.526 758.43 332.661C765.225 329.797 771.398 325.598 776.598 320.305C781.798 315.012 785.923 308.729 788.737 301.813C791.552 294.897 793 287.485 793 280C793 287.485 794.449 294.897 797.263 301.813C800.077 308.729 804.202 315.012 809.402 320.305C814.602 325.598 820.775 329.797 827.57 332.661C834.364 335.526 841.646 337 849 337C834.148 337 819.904 343.005 809.402 353.695C798.9 364.385 793 378.883 793 394V394Z" stroke="#2E0562" stroke-width="8" stroke-linejoin="round"/>
<path d="M316.549 840.901C316.497 825.805 310.516 811.345 299.917 800.689C289.318 790.033 274.964 784.05 260 784.05V784.05C274.998 784.05 289.381 778.039 299.986 767.34C310.591 756.641 316.549 742.13 316.549 727C316.536 734.487 317.987 741.903 320.818 748.824C323.649 755.745 327.805 762.035 333.048 767.334C338.292 772.633 344.519 776.837 351.374 779.705C358.23 782.573 365.578 784.05 373 784.05V784.05C358.028 784.05 343.67 790.05 333.083 800.73C322.497 811.41 316.549 825.896 316.549 841V840.901Z" stroke="#2E0562" stroke-width="8" stroke-linejoin="round"/>
<path d="M575.4 522.4C575.4 526.1 575.8 529.1 576.5 531.3C577.3 533.5 578.3 535.9 579.7 538.5C580.2 539.3 580.4 540.1 580.4 540.8C580.4 541.8 579.8 542.8 578.5 543.8L572.2 548C571.3 548.6 570.4 548.9 569.6 548.9C568.6 548.9 567.6 548.4 566.6 547.5C565.2 546 564 544.4 563 542.8C562 541.1 561 539.2 559.9 536.9C552.1 546.1 542.3 550.7 530.5 550.7C522.1 550.7 515.4 548.3 510.5 543.5C505.6 538.7 503.1 532.3 503.1 524.3C503.1 515.8 506.1 508.9 512.2 503.7C518.3 498.5 526.4 495.9 536.7 495.9C540.1 495.9 543.6 496.2 547.3 496.7C551 497.2 554.8 498 558.8 498.9V491.6C558.8 484 557.2 478.7 554.1 475.6C550.9 472.5 545.5 471 537.8 471C534.3 471 530.7 471.4 527 472.3C523.3 473.2 519.7 474.3 516.2 475.7C514.6 476.4 513.4 476.8 512.7 477C512 477.2 511.5 477.3 511.1 477.3C509.7 477.3 509 476.3 509 474.2V469.3C509 467.7 509.2 466.5 509.7 465.8C510.2 465.1 511.1 464.4 512.5 463.7C516 461.9 520.2 460.4 525.1 459.2C530 457.9 535.2 457.3 540.7 457.3C552.6 457.3 561.3 460 566.9 465.4C572.4 470.8 575.2 479 575.2 490V522.4H575.4ZM534.8 537.6C538.1 537.6 541.5 537 545.1 535.8C548.7 534.6 551.9 532.4 554.6 529.4C556.2 527.5 557.4 525.4 558 523C558.6 520.6 559 517.7 559 514.3V510.1C556.1 509.4 553 508.8 549.8 508.4C546.6 508 543.5 507.8 540.4 507.8C533.7 507.8 528.8 509.1 525.5 511.8C522.2 514.5 520.6 518.3 520.6 523.3C520.6 528 521.8 531.5 524.3 533.9C526.7 536.4 530.2 537.6 534.8 537.6ZM615.1 548.4C613.3 548.4 612.1 548.1 611.3 547.4C610.5 546.8 609.8 545.4 609.2 543.5L585.7 466.2C585.1 464.2 584.8 462.9 584.8 462.2C584.8 460.6 585.6 459.7 587.2 459.7H597C598.9 459.7 600.2 460 600.9 460.7C601.7 461.3 602.3 462.7 602.9 464.6L619.7 530.8L635.3 464.6C635.8 462.6 636.4 461.3 637.2 460.7C638 460.1 639.4 459.7 641.2 459.7H649.2C651.1 459.7 652.4 460 653.2 460.7C654 461.3 654.7 462.7 655.1 464.6L670.9 531.6L688.2 464.6C688.8 462.6 689.5 461.3 690.2 460.7C691 460.1 692.3 459.7 694.1 459.7H703.4C705 459.7 705.9 460.5 705.9 462.2C705.9 462.7 705.8 463.2 705.7 463.8C705.6 464.4 705.4 465.2 705 466.3L680.9 543.6C680.3 545.6 679.6 546.9 678.8 547.5C678 548.1 676.7 548.5 675 548.5H666.4C664.5 548.5 663.2 548.2 662.4 547.5C661.6 546.8 660.9 545.5 660.5 543.5L645 479L629.6 543.4C629.1 545.4 628.5 546.7 627.7 547.4C626.9 548.1 625.5 548.4 623.7 548.4H615.1ZM743.6 551.1C738.4 551.1 733.2 550.5 728.2 549.3C723.2 548.1 719.3 546.8 716.7 545.3C715.1 544.4 714 543.4 713.6 542.5C713.2 541.6 713 540.6 713 539.7V534.6C713 532.5 713.8 531.5 715.3 531.5C715.9 531.5 716.5 531.6 717.1 531.8C717.7 532 718.6 532.4 719.6 532.8C723 534.3 726.7 535.5 730.6 536.3C734.6 537.1 738.5 537.5 742.5 537.5C748.8 537.5 753.7 536.4 757.1 534.2C760.5 532 762.3 528.8 762.3 524.7C762.3 521.9 761.4 519.6 759.6 517.7C757.8 515.8 754.4 514.1 749.5 512.5L735 508C727.7 505.7 722.3 502.3 719 497.8C715.7 493.4 714 488.5 714 483.3C714 479.1 714.9 475.4 716.7 472.2C718.5 469 720.9 466.2 723.9 464C726.9 461.7 730.3 460 734.3 458.8C738.3 457.6 742.5 457.1 746.9 457.1C749.1 457.1 751.4 457.2 753.6 457.5C755.9 457.8 758 458.2 760.1 458.6C762.1 459.1 764 459.6 765.8 460.2C767.6 460.8 769 461.4 770 462C771.4 462.8 772.4 463.6 773 464.5C773.6 465.3 773.9 466.4 773.9 467.8V472.5C773.9 474.6 773.1 475.7 771.6 475.7C770.8 475.7 769.5 475.3 767.8 474.5C762.1 471.9 755.7 470.6 748.6 470.6C742.9 470.6 738.4 471.5 735.3 473.4C732.2 475.3 730.6 478.2 730.6 482.3C730.6 485.1 731.6 487.5 733.6 489.4C735.6 491.3 739.3 493.2 744.6 494.9L758.8 499.4C766 501.7 771.2 504.9 774.3 509C777.4 513.1 778.9 517.8 778.9 523C778.9 527.3 778 531.2 776.3 534.6C774.5 538 772.1 541 769 543.4C765.9 545.9 762.2 547.7 757.9 549C753.4 550.4 748.7 551.1 743.6 551.1Z" fill="#7C5AED"/>
<path d="M762.5 599.7C729.6 624 681.8 636.9 640.7 636.9C583.1 636.9 531.2 615.6 492 580.2C488.9 577.4 491.7 573.6 495.4 575.8C537.8 600.4 590.1 615.3 644.2 615.3C680.7 615.3 720.8 607.7 757.7 592.1C763.2 589.6 767.9 595.7 762.5 599.7Z" fill="#7C5AED"/>
<path d="M776.2 584.1C772 578.7 748.4 581.5 737.7 582.8C734.5 583.2 734 580.4 736.9 578.3C755.7 565.1 786.6 568.9 790.2 573.3C793.8 577.8 789.2 608.7 771.6 623.5C768.9 625.8 766.3 624.6 767.5 621.6C771.5 611.7 780.4 589.4 776.2 584.1Z" fill="#7C5AED"/>
</svg>
